<?xml version="1.0" encoding="UTF-8"?>
<svg xmlns="http://www.w3.org/2000/svg" version="1.1" viewBox="0 0 500 500">
  <defs>
    <style>
      .cls-1 {
        fill: #83ab55;
      }

      .cls-2 {
        fill: #d8e4e0;
      }
    </style>
  </defs>
  <!-- Generator: Adobe Illustrator 28.7.1, SVG Export Plug-In . SVG Version: 1.2.0 Build 142)  -->
  <g>
    <g id="_Слой_1" data-name="Слой_1">
      <g>
        <path class="cls-2" d="M-24.962,672.55c-139.612-95.474-279.217-190.96-418.89-286.345-3.096-2.114-3.315-3.29-1.198-6.384C-254.019,100.654-63.071-178.571,127.795-457.852c2.115-3.095,3.289-3.315,6.383-1.198C413.346-268.019,692.571-77.071,971.852,113.795c3.095,2.115,3.315,3.29,1.199,6.383-191.031,279.168-381.979,558.393-572.845,837.674-2.115,3.095-3.291,3.317-6.383,1.199-139.551-95.564-279.172-191.026-418.784-286.5ZM388.87,335.687l.345.236c-16.367,23.933-32.651,47.922-49.181,71.742-2.698,3.888-2.115,5.91,1.647,8.334,7.842,5.052,15.453,10.461,23.169,15.709,6.447,4.385,6.805,4.303,11.341-2.315,12.434-18.143,24.754-36.366,37.351-54.396,6.336-9.068,17.957-11.981,27.546-7.471,10.157,4.777,14.914,14.768,12.222,25.68-1.099,4.452-3.503,8.264-6.04,11.98-11.65,17.064-23.349,34.096-35.014,51.15-3.411,4.986-3.297,5.604,1.764,9.084,8.239,5.664,16.621,11.128,24.715,16.989,3.904,2.827,6.316,2.298,8.947-1.619,9.198-13.693,18.681-27.195,27.904-40.872,5.207-7.721,10.906-15.111,15.011-23.576,17.506-36.095-1.637-80.063-38.982-89.426-4.284-1.074-4.011-2.379-1.851-5.462,7.934-11.328,15.677-22.789,23.445-34.232,3.242-4.776,2.997-5.932-1.784-9.22-7.551-5.193-15.135-10.339-22.701-15.51-6.347-4.338-6.925-4.211-11.329,2.233-16.167,23.659-32.347,47.309-48.523,70.962ZM49.736,63.866c.064.044.128.088.192.131-10.249,14.987-20.91,29.71-30.66,45.014C-1.498,141.607,3.528,179,31.501,203.973c35.81,31.971,94.472,17.579,112.094-27.279,13.808-35.152-2.133-82.271-47.396-95.27-5.685-1.633-5.695-1.674-2.363-6.579,7.207-10.61,14.447-21.198,21.646-31.813,3.51-5.175,3.332-6.24-1.604-9.618-8.11-5.55-16.36-10.906-24.328-16.652-3.901-2.813-6.186-2.322-8.856,1.682-10.166,15.243-20.615,30.297-30.958,45.422ZM267.304,250.643l.032.022c6.959-10.176,13.854-20.395,20.912-30.502,2.32-3.323,1.922-5.589-1.476-7.839-7.916-5.242-15.683-10.709-23.53-16.055-6.384-4.35-6.972-4.217-11.399,2.256-12.036,17.601-23.977,35.269-36.145,52.779-6.995,10.067-18.57,13.382-27.93,8.433-11.056-5.847-15.75-17.061-11.432-28.123,1.377-3.527,3.413-6.87,5.564-10.011,11.295-16.489,22.723-32.887,34.108-49.315,3.213-4.636,2.981-6.213-1.604-9.373-7.818-5.389-15.668-10.732-23.512-16.082-5.378-3.668-6.383-3.504-9.993,1.775-12.225,17.876-24.476,35.734-36.63,53.658-22.101,32.593-12.708,71.131,17.185,90.602,29.559,19.254,67.845,12.612,88.063-16.245,6.022-8.595,11.863-17.315,17.788-25.979ZM359.119,260.215c-2.27-1.305-5.601-3.571-9.209-5.241-35.171-16.276-73.25-2.992-91.767,31.921-12.901,24.325-9.432,53.979,8.854,75.669,18.199,21.588,48.585,30.662,74.09,22.274,2.839-.934,3.529-2.243,2.995-5.084-1.752-9.328-3.229-18.708-4.894-28.053-1.137-6.378-1.483-6.692-7.806-5.317-10.796,2.348-20.37.348-28.959-6.858-10.489-8.8-12.75-24.9-4.82-36.586,8.29-12.216,23.794-16.118,36.054-9.274,9.426,5.262,14.68,13.284,16.365,23.763.601,3.738,1.947,5.612,6.244,4.734,10.441-2.133,20.939-3.998,31.446-5.784,3.07-.522,3.671-1.9,3.206-4.776-3.397-21.024-12.827-38.329-31.799-51.389Z"/>
        <path class="cls-1" d="M388.87,335.687c16.175-23.653,32.356-47.303,48.523-70.962,4.404-6.445,4.982-6.572,11.329-2.233,7.566,5.172,15.15,10.317,22.701,15.51,4.781,3.288,5.026,4.444,1.784,9.22-7.768,11.443-15.511,22.904-23.445,34.232-2.16,3.083-2.433,4.388,1.851,5.462,37.345,9.363,56.489,53.332,38.982,89.426-4.106,8.465-9.804,15.854-15.011,23.576-9.223,13.677-18.706,27.178-27.904,40.872-2.631,3.917-5.044,4.446-8.947,1.619-8.095-5.862-16.477-11.325-24.715-16.989-5.062-3.48-5.175-4.098-1.764-9.084,11.665-17.054,23.364-34.086,35.014-51.15,2.537-3.716,4.942-7.528,6.04-11.98,2.693-10.912-2.065-20.904-12.222-25.68-9.588-4.509-21.21-1.597-27.546,7.471-12.597,18.03-24.917,36.252-37.351,54.396-4.536,6.619-4.893,6.7-11.341,2.315-7.716-5.248-15.327-10.657-23.169-15.709-3.762-2.424-4.346-4.445-1.647-8.334,16.53-23.819,32.815-47.809,49.181-71.742l-.345-.236Z"/>
        <path class="cls-1" d="M49.736,63.866c10.343-15.125,20.792-30.179,30.958-45.422,2.67-4.004,4.955-4.495,8.856-1.682,7.968,5.747,16.218,11.102,24.328,16.652,4.936,3.378,5.113,4.443,1.604,9.618-7.199,10.615-14.44,21.202-21.646,31.813-3.332,4.905-3.322,4.946,2.363,6.579,45.263,12.999,61.204,60.118,47.396,95.27-17.622,44.859-76.284,59.25-112.094,27.279C3.528,179-1.498,141.607,19.268,109.012c9.75-15.304,20.412-30.027,30.66-45.014-.064-.044-.128-.088-.192-.131ZM33.026,126.239c-1.512-1.034-3.129-1.945-4.515-3.127-3.175-2.707-4.924-2.118-6.461,1.842-2.242,5.775-4.155,11.582-4.896,17.744q-1.159,9.636,7.895,12.068c.964.259,1.951.467,2.877.828,2.326.906,3.538.361,4.337-2.227,1.271-4.119,2.847-8.175,4.647-12.095,4.34-9.453,4.422-9.415-3.883-15.032ZM38.804,117.778l.009-.013c1.51,1.032,3.122,1.944,4.507,3.123,2.686,2.286,4.652,2.342,6.821-.902,1.919-2.869,4.465-5.356,6.928-7.818,8.025-8.017,7.979-7.92,1.051-16.796-1.927-2.469-3.73-2.838-6.374-1.429-5.153,2.746-10.073,5.829-14.507,9.632-8.103,6.95-8.05,7.585.742,13.64.274.189.549.376.823.563ZM115.981,182.98c-1.1-.752-2.298-1.394-3.28-2.276-2.984-2.679-5.322-2.972-8.082.688-2.678,3.551-6.07,6.604-9.364,9.642-6.319,5.829-6.382,5.761-1.105,12.951.099.134.223.255.295.402,1.618,3.297,4.12,3.359,7.091,2.025,5.344-2.4,10.311-5.401,14.854-9.103,9.388-7.649,9.385-7.77-.409-14.33ZM122.275,174.768c1.513,1.035,3.119,1.958,4.519,3.127,2.849,2.379,4.534,2.324,6.197-1.529,2.201-5.1,3.987-10.233,4.632-15.735,1.651-14.098,1.734-10.455-10.028-14.439-2.348-.795-3.634-.09-4.461,2.369-1.322,3.933-2.823,7.836-4.613,11.577-4.332,9.052-4.417,9.012,3.755,14.631ZM65.963,136.265c10.426,7.139,10.47,7.169,17.59-3.388,5.399-8.005,6.14-6.458-2.047-12.359-3.4-2.451-5.736-7.932-10.165-6.978-4.113.885-6.939,5.393-10.082,8.556-6.169,6.209-6.061,6.741,1.015,11.631,1.228.849,2.464,1.686,3.689,2.538ZM89.283,164.672c-.41-.281-.821-.562-1.231-.842q-8.979-6.127-15.195,2.834-5.489,7.913,1.503,14.476,8.399,7.884,16.865-.074c.241-.227.517-.42.737-.666,9.287-10.408,8.84-7.564-1.445-14.888-.405-.288-.82-.562-1.233-.84ZM60.51,145.003c-11.641-7.961-11.724-7.992-16.581,5.067-4.191,11.268-3.63,9.264,5.543,13.938.592.302,1.165.64,1.739.976q7.441,4.35,12.474-3.034,6.869-10.077-3.175-16.946ZM94.889,156.053c.274.187.548.374.822.562q10.722,7.354,15.484-4.683,3.896-9.849-5.458-15.018c-.436-.241-.863-.497-1.289-.755-9.06-5.498-7.25-4.961-12.736,2.931-6.956,10.006-6.899,10.046,3.177,16.964ZM99.913,108.99c1.4-2.047,2.729-4.148,4.217-6.129,2.259-3.007.719-3.66-2.098-3.513-6.73.352-12.94,2.439-18.809,5.68-1.527.843-1.876,1.697-.477,2.97,1.097.998,2.055,2.155,3.2,3.09q8.059,6.583,13.968-2.099ZM108.551,114.402l.014.009c-1.399,2.046-2.782,4.104-4.203,6.135-1.019,1.456-1.049,2.722.559,3.769,2.902,1.89,5.702,3.924,8.95,5.261,2.411.993,3.299.226,3.467-2.205.389-5.627.432-11.23-.822-16.767-.287-1.267-.403-2.945-1.8-3.325-1.93-.526-2.198,1.592-3.056,2.645-1.144,1.404-2.082,2.977-3.108,4.478ZM46.695,186.694c6.64-9.675,6.423-10.355-4.756-14.934-.153-.063-.32-.109-.455-.201-2.357-1.601-3.189-.477-3.399,1.866-.506,5.646-.574,11.274,1.008,16.779.352,1.224.938,3.062,1.799,3.315,1.767.52,2.077-1.682,2.964-2.742,1.06-1.266,1.902-2.715,2.839-4.085ZM50.041,200.079c4.781.938,8.633-.192,12.318-1.356,3.53-1.114,9.255-1.554,9.608-4.808.377-3.471-4.9-5.581-7.953-8.041-1.981-1.597-3.417-1.388-4.839.79-2.802,4.292-5.761,8.482-9.134,13.414ZM127.616,115.886c-.12,2.917-.185,4.716-.271,6.513-.094,1.987-.152,3.978-.323,5.958-.637,7.354-.005,8.09,7.162,9.216,2.399.377,3.076-.33,2.467-2.578-1.767-6.523-3.504-13.057-9.035-19.11ZM92.476,90.421c-8.178-2.124-15.029-2.791-21.977-1.403-1.027.205-3.049.097-2.743,1.416.648,2.786,3.163,4.526,4.964,6.648,1.282,1.51,2.742.698,4.05-.011,4.648-2.518,9.556-4.441,15.706-6.651ZM27.591,185.25c.091-3.043.106-4.82.207-6.593.113-1.979.297-3.954.466-5.93.564-6.594-.066-7.271-6.411-8.486-3.289-.63-3.774.566-3.014,3.367,1.623,5.976,4.406,11.368,8.752,17.641ZM63.101,209.801c6.668,1.537,12.232,1.948,17.849,1.276,1.412-.169,3.716.246,3.99-1.216.486-2.595-2.07-4.238-3.266-6.321-.973-1.693-2.34-1.311-3.842-.591-4.573,2.193-9.194,4.286-14.732,6.852Z"/>
        <path class="cls-1" d="M267.304,250.643c-5.924,8.663-11.766,17.384-17.788,25.979-20.218,28.857-58.503,35.499-88.063,16.245-29.893-19.471-39.286-58.009-17.185-90.602,12.154-17.924,24.406-35.782,36.63-53.658,3.61-5.279,4.616-5.443,9.993-1.775,7.845,5.35,15.694,10.694,23.512,16.082,4.584,3.16,4.817,4.737,1.604,9.373-11.385,16.427-22.813,32.826-34.108,49.315-2.152,3.141-4.187,6.483-5.564,10.011-4.319,11.062.376,22.276,11.432,28.123,9.359,4.949,20.934,1.634,27.93-8.433,12.168-17.51,24.109-35.178,36.145-52.779,4.427-6.474,5.015-6.606,11.399-2.256,7.847,5.347,15.614,10.813,23.53,16.055,3.398,2.25,3.796,4.516,1.476,7.839-7.057,10.107-13.953,20.326-20.912,30.502l-.032-.022Z"/>
        <path class="cls-1" d="M359.119,260.215c18.972,13.06,28.402,30.365,31.799,51.389.465,2.876-.136,4.254-3.206,4.776-10.507,1.786-21.005,3.651-31.446,5.784-4.296.878-5.642-.996-6.244-4.734-1.685-10.479-6.939-18.501-16.365-23.763-12.26-6.844-27.764-2.942-36.054,9.274-7.93,11.686-5.669,27.785,4.82,36.586,8.589,7.206,18.163,9.206,28.959,6.858,6.323-1.375,6.669-1.061,7.806,5.317,1.666,9.345,3.142,18.725,4.894,28.053.534,2.841-.156,4.15-2.995,5.084-25.505,8.388-55.89-.686-74.09-22.274-18.286-21.69-21.755-51.344-8.854-75.669,18.517-34.913,56.596-48.198,91.767-31.921,3.608,1.67,6.939,3.936,9.209,5.241Z"/>
        <path class="cls-2" d="M33.026,126.239c8.305,5.617,8.223,5.579,3.883,15.032-1.8,3.92-3.376,7.976-4.647,12.095-.798,2.588-2.01,3.133-4.337,2.227-.926-.361-1.913-.569-2.877-.828q-9.052-2.433-7.895-12.068c.741-6.161,2.654-11.969,4.896-17.744,1.537-3.96,3.286-4.548,6.461-1.842,1.386,1.182,3.003,2.093,4.515,3.127Z"/>
        <path class="cls-2" d="M38.804,117.778c-.274-.188-.55-.375-.823-.563-8.792-6.055-8.845-6.69-.742-13.64,4.434-3.803,9.354-6.887,14.507-9.632,2.644-1.409,4.447-1.04,6.374,1.429,6.929,8.876,6.975,8.779-1.051,16.796-2.464,2.461-5.009,4.948-6.928,7.818-2.169,3.244-4.135,3.188-6.821.902-1.385-1.179-2.998-2.091-4.507-3.123l-.009.013Z"/>
        <path class="cls-2" d="M115.981,182.98c9.794,6.559,9.797,6.68.409,14.33-4.543,3.702-9.509,6.703-14.854,9.103-2.971,1.334-5.473,1.272-7.091-2.025-.072-.147-.196-.268-.295-.402-5.277-7.19-5.214-7.122,1.105-12.951,3.294-3.038,6.686-6.091,9.364-9.642,2.76-3.661,5.098-3.367,8.082-.688.983.882,2.181,1.524,3.28,2.276Z"/>
        <path class="cls-2" d="M122.276,174.767c-8.173-5.618-8.088-5.577-3.756-14.629,1.79-3.741,3.291-7.644,4.613-11.577.826-2.459,2.113-3.164,4.461-2.369,11.762,3.985,11.679.341,10.028,14.439-.644,5.502-2.431,10.636-4.632,15.735-1.662,3.853-3.348,3.908-6.197,1.529-1.4-1.169-3.006-2.093-4.518-3.129Z"/>
        <path class="cls-2" d="M65.966,136.261c-1.229-.847-2.465-1.684-3.693-2.533-7.075-4.89-7.184-5.422-1.015-11.631,3.143-3.163,5.969-7.671,10.082-8.556,4.429-.953,6.765,4.527,10.165,6.978,8.186,5.901,7.445,4.354,2.047,12.359-7.12,10.557-7.164,10.527-17.587,3.383Z"/>
        <path class="cls-2" d="M89.284,164.67c.412.279.827.553,1.232.841,10.285,7.324,10.732,4.48,1.445,14.888-.219.245-.495.439-.737.666q-8.466,7.958-16.865.074-6.992-6.563-1.503-14.476,6.216-8.961,15.195-2.834c.411.28.821.561,1.232.84Z"/>
        <path class="cls-2" d="M60.51,145.003q10.044,6.869,3.175,16.946-5.033,7.385-12.474,3.034c-.574-.335-1.147-.674-1.739-.976-9.172-4.674-9.734-2.67-5.543-13.938,4.858-13.059,4.94-13.028,16.581-5.067Z"/>
        <path class="cls-2" d="M94.89,156.052c-10.077-6.917-10.134-6.957-3.178-16.962,5.486-7.891,3.676-8.428,12.736-2.931.426.258.853.514,1.289.755q9.355,5.17,5.458,15.018-4.762,12.037-15.484,4.683c-.274-.188-.548-.375-.821-.563Z"/>
        <path class="cls-2" d="M99.913,108.99q-5.898,8.669-13.968,2.099c-1.144-.935-2.103-2.093-3.2-3.09-1.399-1.273-1.05-2.127.477-2.97,5.869-3.241,12.079-5.328,18.809-5.68,2.817-.147,4.357.505,2.098,3.513-1.488,1.981-2.817,4.082-4.217,6.129Z"/>
        <path class="cls-2" d="M108.551,114.402c1.026-1.501,1.963-3.074,3.108-4.478.858-1.053,1.126-3.171,3.056-2.645,1.397.38,1.513,2.058,1.8,3.325,1.254,5.537,1.211,11.14.822,16.767-.168,2.432-1.055,3.198-3.467,2.205-3.248-1.337-6.048-3.371-8.95-5.261-1.608-1.047-1.578-2.313-.559-3.769,1.421-2.031,2.804-4.089,4.203-6.135l-.014-.009Z"/>
        <path class="cls-2" d="M46.695,186.694c-.937,1.37-1.779,2.818-2.839,4.085-.887,1.06-1.196,3.262-2.964,2.742-.861-.254-1.447-2.092-1.799-3.315-1.582-5.505-1.514-11.133-1.008-16.779.21-2.343,1.042-3.468,3.399-1.866.135.092.301.138.455.201,11.179,4.579,11.396,5.259,4.756,14.934Z"/>
        <path class="cls-2" d="M50.041,200.079c3.373-4.932,6.332-9.122,9.134-13.414,1.422-2.179,2.859-2.387,4.839-.79,3.052,2.461,8.33,4.57,7.953,8.041-.354,3.253-6.078,3.693-9.608,4.808-3.685,1.163-7.537,2.294-12.318,1.356Z"/>
        <path class="cls-2" d="M127.616,115.886c5.53,6.053,7.268,12.587,9.035,19.11.609,2.248-.068,2.955-2.467,2.578-7.167-1.127-7.798-1.863-7.162-9.216.172-1.981.229-3.971.323-5.958.086-1.798.15-3.596.271-6.513Z"/>
        <path class="cls-2" d="M92.476,90.421c-6.15,2.21-11.058,4.133-15.706,6.651-1.307.708-2.768,1.521-4.05.011-1.801-2.122-4.316-3.862-4.964-6.648-.307-1.319,1.716-1.211,2.743-1.416,6.948-1.389,13.798-.721,21.977,1.403Z"/>
        <path class="cls-2" d="M27.591,185.25c-4.346-6.273-7.129-11.665-8.752-17.641-.761-2.801-.276-3.997,3.014-3.367,6.346,1.215,6.975,1.892,6.411,8.486-.169,1.976-.352,3.951-.466,5.93-.102,1.772-.116,3.549-.207,6.593Z"/>
        <path class="cls-2" d="M63.101,209.801c5.538-2.566,10.158-4.659,14.732-6.852,1.502-.72,2.869-1.102,3.842.591,1.197,2.083,3.752,3.726,3.266,6.321-.274,1.462-2.578,1.047-3.99,1.216-5.617.672-11.181.261-17.849-1.276Z"/>
      </g>
    </g>
  </g>
</svg>