<?xml version="1.0" encoding="UTF-8"?>
<svg xmlns="http://www.w3.org/2000/svg" version="1.1" viewBox="0 0 500 500">
  <defs>
    <style>
      .cls-1 {
        fill: #83ab55;
      }
    </style>
  </defs>
  <!-- Generator: Adobe Illustrator 28.7.1, SVG Export Plug-In . SVG Version: 1.2.0 Build 142)  -->
  <g>
    <g id="_Слой_1" data-name="Слой_1">
      <g id="_Слой_1-2" data-name="_Слой_1">
        <g>
          <path class="cls-1" d="M384.9,246.8c.8-26.7,1.7-53.5,2.5-80.2.2-7.3.6-7.7,7.4-7.6,8.1.1,16.3.3,24.4.4,5.1.1,5.9.9,5.7,6.3-.4,12.9-.7,25.8-1.2,38.7-.1,3.5.3,4.7,4,3.3,32.4-11.9,67.7,12.5,71.8,49.6,1,8.7.2,17.4,0,26.1-.4,15.4-1.1,30.8-1.4,46.2-.1,4.4-1.7,6.1-5.9,5.9-8.9-.4-17.7-.4-26.6-.5-5.5-.1-5.8-.5-5.7-6.2.6-19.3,1.3-38.5,1.8-57.8.1-4.2.1-8.4-1.2-12.4-3.2-9.9-11.5-15.2-21.4-13.7-9.3,1.4-16.6,9.6-17.1,20-.8,20.5-1.4,41-2.1,61.6-.2,7.5-.5,7.7-7.4,7.6-8.3-.1-16.6-.4-24.8-.3-4,0-5.4-1.2-5.2-5.6,1-27,1.8-54.1,2.6-81.1h-.4s0,0,0,0Z"/>
          <path class="cls-1" d="M1.3,209.2c.5-17.1,1.2-34.2,1.5-51.3,0-4.5,1.6-6,5.8-5.9,8.7.4,17.4.3,26.2.5,5.3,0,5.9.8,5.8,6.7-.3,12-.7,23.9-1.1,35.9-.2,5.5-.1,5.6,4.9,3.9,40.1-13.1,74.5,15.4,80.9,49.9,8.2,44-28.9,85.3-71,78.8C21.6,322.6,0,296,0,260c0-16.9,1-33.9,1.5-50.8,0,0-.1,0-.2,0h0ZM18.5,266.3c-1.6,0-3.3,0-4.9-.1-3.7-.5-4.7.9-4,4.8,1.1,5.6,2.4,11.2,4.8,16.3,2.5,5.4,6.4,7.2,11.7,5.3.8-.3,1.7-.6,2.5-.8,2.2-.5,2.8-1.5,2.2-4-1-3.9-1.8-7.8-2.3-11.8-1.3-9.6-1.2-9.6-10.1-9.7h0ZM18.8,256.8h0c1.6,0,3.3-.1,4.9.1,3.1.4,4.6-.6,4.7-4.2,0-3.2.8-6.5,1.5-9.6,2.2-10.4,2.2-10.3-7.2-13.6-2.6-.9-4.1-.3-5.5,2.2-2.6,4.8-4.8,9.7-6.3,15-2.8,9.6-2.4,10,7.1,10.2.3,0,.6,0,.9,0ZM107.7,267.9c-1.2,0-2.4,0-3.5,0-3.5-.6-5.4.4-5.7,4.7-.3,4.1-1.4,8.3-2.4,12.3-2,7.8-2,7.8,5.3,10.7.1,0,.3,0,.4.2,2.8,1.7,4.7.5,6.3-2.1,2.9-4.6,5.1-9.5,6.8-14.7,3.4-10.8,3.3-10.9-7.1-11h0ZM108.5,258.3c1.6,0,3.3,0,4.9.1,3.3.4,4.5-.5,3.9-4.4-.8-5.1-1.9-10-4-14.6-5.5-11.8-3.7-9-14.4-6.1-2.1.6-2.8,1.8-2.2,4.1.9,3.7,1.6,7.6,2.1,11.4,1.1,9.3,1,9.3,9.8,9.5h0ZM48,257.2c11.2.2,11.3.2,11.6-11.7.2-9,1.5-8.2-7.4-8.6-3.7-.2-8.1-3.2-10.9-.2-2.7,2.8-2.6,7.8-3.5,11.8-1.7,8-1.3,8.4,6.3,8.5,1.3,0,2.6,0,4,0ZM79,267.4c-.4,0-.9,0-1.3,0-6.4-.1-9.8,3.2-10,10-.2,6,2.4,9.5,8,10.5,6.7,1.2,10.9-1.7,12.6-8.7,0-.3.2-.6.2-.9,2-12.9,3-10.4-8.2-10.9-.4,0-.9,0-1.3,0h0ZM48,266.8c-12.5-.2-12.6-.2-10,12.5,2.2,10.9,1.7,9.1,10.8,8,.6,0,1.2,0,1.8-.1,5.1-.3,7.7-3.2,7.9-8.8.2-7.6-3.3-11.4-10.5-11.6h0ZM79.1,257.8c.3,0,.6,0,.9,0,7.7.1,10.8-3.7,9.4-11.6-1.2-6.4-4.9-9.4-11.2-8.9-.4,0-.9,0-1.3,0-9.4.4-7.8-.1-8.1,8.8-.4,11.4-.4,11.4,10.5,11.6h0ZM60.4,218.5c0-2.3,0-4.6.2-6.9.3-3.5-1.2-3.2-3.2-1.7-4.9,3.7-8.5,8.5-11.4,14.1-.7,1.4-.6,2.3,1.1,2.6,1.3.2,2.6.6,3.9.8,6.1.7,9.3-2.3,9.5-8.8h0ZM69.4,218.3h0c0,2.3-.1,4.6-.2,6.9,0,1.7.5,2.7,2.2,2.6,3.1,0,6.1.1,9.2-.5,2.3-.5,2.6-1.5,1.5-3.5-2.4-4.6-5-9-8.6-12.6-.8-.8-1.7-2.1-2.9-1.7-1.7.6-.9,2.4-1,3.6-.2,1.7-.1,3.4-.2,5.1h0ZM57.6,306.4c.4-10.9-.1-11.4-10.7-9.2-.1,0-.3,0-.4,0-2.5,0-2.6,1.3-1.7,3.2,2.3,4.7,4.9,9.1,8.8,12.6.8.8,2.2,1.9,2.9,1.7,1.6-.5.8-2.4.9-3.7.2-1.5.1-3.1.2-4.6h0ZM66.5,315.1c4-1.7,6.4-4.6,8.6-7.4,2.1-2.7,6.2-6,4.9-8.7-1.4-2.9-6.3-1.8-9.8-2.2-2.2-.2-3.2.7-3.2,3.1,0,4.8-.3,9.6-.4,15.1h0ZM84.4,209.7c1.3,2.3,2.1,3.8,2.9,5.2.9,1.6,1.8,3.2,2.6,4.8,3,6.1,3.9,6.3,9.8,3.5,2-.9,2.1-1.8.6-3.3-4.4-4.2-8.8-8.4-15.9-10.2h0ZM46,207.9c-7.1,2.5-12.6,5.5-17.1,10.2-.7.7-2.2,1.6-1.4,2.5,1.8,1.8,4.5,1.9,6.9,2.6,1.7.5,2.4-.9,3-2.1,2.3-4.3,5-8.4,8.6-13.2h0ZM42.6,315.1c-1.4-2.4-2.2-3.8-3-5.2-.9-1.6-1.7-3.2-2.5-4.9-2.7-5.4-3.5-5.6-8.8-3.3-2.8,1.2-2.6,2.4-.7,4.2,4.1,3.8,8.7,6.6,15,9.2h0ZM80.9,316c5.7-2.2,10.1-4.8,14-8.2,1-.9,2.9-1.7,2.4-3-.9-2.3-3.6-2.2-5.5-3.2-1.5-.8-2.4.2-3.2,1.5-2.4,4.1-4.8,8.1-7.8,12.9h0Z"/>
          <path class="cls-1" d="M253.3,242.9c-.3,9.8-.5,19.6-.9,29.4-1.4,32.9-26.9,57.7-58.2,57.9-31.7.2-57.1-25-56.1-61.8.6-20.2,1.2-40.4,1.9-60.6.2-6,.9-6.6,6.6-6.5,8.4.1,16.9.3,25.3.5,4.9.1,5.9,1.2,5.7,6.5-.7,18.6-1.4,37.3-2,55.9-.1,3.6,0,7.2.6,10.7,2,10.8,10.9,17.2,22,16,9.4-1,16.5-9.5,16.9-20.9.8-19.9,1.3-39.8,1.9-59.7.2-7.3.6-7.7,7.5-7.6,8.4.1,16.8.4,25.3.4,3.6,0,5,1.6,4.8,5.3-.5,11.5-.8,23-1.1,34.5h0s0,0,0,0Z"/>
          <path class="cls-1" d="M326.6,203.2c20.4.4,35.7,9.1,48.3,23.7,1.7,2,1.9,3.4-.1,5.4-7,6.8-14,13.6-20.8,20.7-2.8,2.9-4.7,2.1-6.9-.5-6.3-7.3-14-10.8-23.6-10.1-12.4,1-22.2,12-22.6,25.7-.4,13.2,9,24.6,21,26,9.9,1.2,18-2.2,25-9.5,4.1-4.3,4.5-4.3,8.4.1,5.7,6.4,11.3,13,17,19.3,1.8,1.9,1.9,3.3.2,5.5-15.1,19.6-42.2,28.2-66.1,20.7-24-7.5-40.8-28.8-42.7-54.4-2.8-36.7,19.4-66.6,53.5-72,3.5-.6,7.1-.5,9.4-.6h0Z"/>
        </g>
      </g>
    </g>
  </g>
</svg>