<?xml version="1.0" encoding="UTF-8"?>
<svg xmlns="http://www.w3.org/2000/svg" version="1.1" viewBox="0 0 500 500">
  <defs>
    <style>
      .cls-1 {
        fill: #83ab55;
      }

      .cls-2 {
        fill: #e6d3d3;
      }

      .cls-3 {
        fill: #d8e4e0;
      }
    </style>
  </defs>
  <!-- Generator: Adobe Illustrator 28.7.1, SVG Export Plug-In . SVG Version: 1.2.0 Build 142)  -->
  <g>
    <g id="_Слой_1" data-name="Слой_1">
      <g id="_Слой_1-2" data-name="_Слой_1">
        <g>
          <path class="cls-2" d="M-25,672.5c-139.6-95.5-279.2-191-418.9-286.3-3.1-2.1-3.3-3.3-1.2-6.4C-254,100.7-63.1-178.6,127.8-457.9c2.1-3.1,3.3-3.3,6.4-1.2C413.3-268,692.6-77.1,971.9,113.8c3.1,2.1,3.3,3.3,1.2,6.4-191,279.2-382,558.4-572.8,837.7-2.1,3.1-3.3,3.3-6.4,1.2-139.6-95.6-279.2-191-418.8-286.5h0ZM388.9,335.7l.3.2c-16.4,23.9-32.7,47.9-49.2,71.7-2.7,3.9-2.1,5.9,1.6,8.3,7.8,5.1,15.5,10.5,23.2,15.7,6.4,4.4,6.8,4.3,11.3-2.3,12.4-18.1,24.8-36.4,37.4-54.4,6.3-9.1,18-12,27.5-7.5,10.2,4.8,14.9,14.8,12.2,25.7-1.1,4.5-3.5,8.3-6,12-11.6,17.1-23.3,34.1-35,51.1-3.4,5-3.3,5.6,1.8,9.1,8.2,5.7,16.6,11.1,24.7,17,3.9,2.8,6.3,2.3,8.9-1.6,9.2-13.7,18.7-27.2,27.9-40.9,5.2-7.7,10.9-15.1,15-23.6,17.5-36.1-1.6-80.1-39-89.4-4.3-1.1-4-2.4-1.9-5.5,7.9-11.3,15.7-22.8,23.4-34.2,3.2-4.8,3-5.9-1.8-9.2-7.6-5.2-15.1-10.3-22.7-15.5-6.3-4.3-6.9-4.2-11.3,2.2-16.2,23.7-32.3,47.3-48.5,71h0ZM49.7,63.9c0,0,.1,0,.2.1-10.2,15-20.9,29.7-30.7,45C-1.5,141.6,3.5,179,31.5,204c35.8,32,94.5,17.6,112.1-27.3,13.8-35.2-2.1-82.3-47.4-95.3-5.7-1.6-5.7-1.7-2.4-6.6,7.2-10.6,14.4-21.2,21.6-31.8,3.5-5.2,3.3-6.2-1.6-9.6-8.1-5.5-16.4-10.9-24.3-16.7-3.9-2.8-6.2-2.3-8.9,1.7-10.2,15.2-20.6,30.3-31,45.4h0ZM267.3,250.6h0c7-10.2,13.9-20.4,20.9-30.5,2.3-3.3,1.9-5.6-1.5-7.8-7.9-5.2-15.7-10.7-23.5-16.1-6.4-4.4-7-4.2-11.4,2.3-12,17.6-24,35.3-36.1,52.8-7,10.1-18.6,13.4-27.9,8.4-11.1-5.8-15.8-17.1-11.4-28.1,1.4-3.5,3.4-6.9,5.6-10,11.3-16.5,22.7-32.9,34.1-49.3,3.2-4.6,3-6.2-1.6-9.4-7.8-5.4-15.7-10.7-23.5-16.1-5.4-3.7-6.4-3.5-10,1.8-12.2,17.9-24.5,35.7-36.6,53.7-22.1,32.6-12.7,71.1,17.2,90.6,29.6,19.3,67.8,12.6,88.1-16.2,6-8.6,11.9-17.3,17.8-26h0ZM359.1,260.2c-2.3-1.3-5.6-3.6-9.2-5.2-35.2-16.3-73.2-3-91.8,31.9-12.9,24.3-9.4,54,8.9,75.7,18.2,21.6,48.6,30.7,74.1,22.3,2.8-.9,3.5-2.2,3-5.1-1.8-9.3-3.2-18.7-4.9-28.1-1.1-6.4-1.5-6.7-7.8-5.3-10.8,2.3-20.4.3-29-6.9-10.5-8.8-12.8-24.9-4.8-36.6,8.3-12.2,23.8-16.1,36.1-9.3,9.4,5.3,14.7,13.3,16.4,23.8.6,3.7,1.9,5.6,6.2,4.7,10.4-2.1,20.9-4,31.4-5.8,3.1-.5,3.7-1.9,3.2-4.8-3.4-21-12.8-38.3-31.8-51.4h0Z"/>
          <path class="cls-1" d="M388.9,335.7c16.2-23.7,32.4-47.3,48.5-71,4.4-6.4,5-6.6,11.3-2.2,7.6,5.2,15.1,10.3,22.7,15.5,4.8,3.3,5,4.4,1.8,9.2-7.8,11.4-15.5,22.9-23.4,34.2-2.2,3.1-2.4,4.4,1.9,5.5,37.3,9.4,56.5,53.3,39,89.4-4.1,8.5-9.8,15.9-15,23.6-9.2,13.7-18.7,27.2-27.9,40.9-2.6,3.9-5,4.4-8.9,1.6-8.1-5.9-16.5-11.3-24.7-17-5.1-3.5-5.2-4.1-1.8-9.1,11.7-17.1,23.4-34.1,35-51.1,2.5-3.7,4.9-7.5,6-12,2.7-10.9-2.1-20.9-12.2-25.7-9.6-4.5-21.2-1.6-27.5,7.5-12.6,18-24.9,36.3-37.4,54.4-4.5,6.6-4.9,6.7-11.3,2.3-7.7-5.2-15.3-10.7-23.2-15.7-3.8-2.4-4.3-4.4-1.6-8.3,16.5-23.8,32.8-47.8,49.2-71.7l-.3-.2h0Z"/>
          <path class="cls-1" d="M49.7,63.9c10.3-15.1,20.8-30.2,31-45.4,2.7-4,5-4.5,8.9-1.7,8,5.7,16.2,11.1,24.3,16.7,4.9,3.4,5.1,4.4,1.6,9.6-7.2,10.6-14.4,21.2-21.6,31.8-3.3,4.9-3.3,4.9,2.4,6.6,45.3,13,61.2,60.1,47.4,95.3-17.6,44.9-76.3,59.2-112.1,27.3C3.5,179-1.5,141.6,19.3,109c9.8-15.3,20.4-30,30.7-45,0,0-.1,0-.2-.1h0ZM33,126.2c-1.5-1-3.1-1.9-4.5-3.1-3.2-2.7-4.9-2.1-6.5,1.8-2.2,5.8-4.2,11.6-4.9,17.7-.8,6.4,1.9,10.4,7.9,12.1,1,.3,2,.5,2.9.8,2.3.9,3.5.4,4.3-2.2,1.3-4.1,2.8-8.2,4.6-12.1,4.3-9.5,4.4-9.4-3.9-15h0ZM38.8,117.8h0c1.5,1,3.1,1.9,4.5,3.1,2.7,2.3,4.7,2.3,6.8-.9,1.9-2.9,4.5-5.4,6.9-7.8,8-8,8-7.9,1.1-16.8-1.9-2.5-3.7-2.8-6.4-1.4-5.2,2.7-10.1,5.8-14.5,9.6-8.1,6.9-8,7.6.7,13.6.3.2.5.4.8.6ZM116,183c-1.1-.8-2.3-1.4-3.3-2.3-3-2.7-5.3-3-8.1.7-2.7,3.6-6.1,6.6-9.4,9.6-6.3,5.8-6.4,5.8-1.1,13,0,.1.2.3.3.4,1.6,3.3,4.1,3.4,7.1,2,5.3-2.4,10.3-5.4,14.9-9.1,9.4-7.6,9.4-7.8-.4-14.3h0ZM122.3,174.8c1.5,1,3.1,2,4.5,3.1,2.8,2.4,4.5,2.3,6.2-1.5,2.2-5.1,4-10.2,4.6-15.7,1.7-14.1,1.7-10.5-10-14.4-2.3-.8-3.6,0-4.5,2.4-1.3,3.9-2.8,7.8-4.6,11.6-4.3,9.1-4.4,9,3.8,14.6h0ZM66,136.3q10.4,7.1,17.6-3.4c5.4-8,6.1-6.5-2-12.4-3.4-2.5-5.7-7.9-10.2-7-4.1.9-6.9,5.4-10.1,8.6-6.2,6.2-6.1,6.7,1,11.6,1.2.8,2.5,1.7,3.7,2.5ZM89.3,164.7c-.4-.3-.8-.6-1.2-.8-6-4.1-11.1-3.1-15.2,2.8-3.7,5.3-3.2,10.1,1.5,14.5,5.6,5.3,11.2,5.2,16.9,0,.2-.2.5-.4.7-.7,9.3-10.4,8.8-7.6-1.4-14.9-.4-.3-.8-.6-1.2-.8h0ZM60.5,145c-11.6-8-11.7-8-16.6,5.1-4.2,11.3-3.6,9.3,5.5,13.9.6.3,1.2.6,1.7,1,5,2.9,9.1,1.9,12.5-3,4.6-6.7,3.5-12.4-3.2-16.9h0ZM94.9,156.1c.3.2.5.4.8.6,7.1,4.9,12.3,3.3,15.5-4.7,2.6-6.6.8-11.6-5.5-15-.4-.2-.9-.5-1.3-.8-9.1-5.5-7.2-5-12.7,2.9-7,10-6.9,10,3.2,17h0ZM99.9,109c1.4-2,2.7-4.1,4.2-6.1,2.3-3,.7-3.7-2.1-3.5-6.7.4-12.9,2.4-18.8,5.7-1.5.8-1.9,1.7-.5,3,1.1,1,2.1,2.2,3.2,3.1,5.4,4.4,10,3.7,14-2.1h0ZM108.6,114.4h0c-1.4,2.1-2.8,4.1-4.2,6.1-1,1.5-1,2.7.6,3.8,2.9,1.9,5.7,3.9,8.9,5.3,2.4,1,3.3.2,3.5-2.2.4-5.6.4-11.2-.8-16.8-.3-1.3-.4-2.9-1.8-3.3-1.9-.5-2.2,1.6-3.1,2.6-1.1,1.4-2.1,3-3.1,4.5h0ZM46.7,186.7c6.6-9.7,6.4-10.4-4.8-14.9-.2,0-.3-.1-.5-.2-2.4-1.6-3.2-.5-3.4,1.9-.5,5.6-.6,11.3,1,16.8.4,1.2.9,3.1,1.8,3.3,1.8.5,2.1-1.7,3-2.7,1.1-1.3,1.9-2.7,2.8-4.1h0ZM50,200.1c4.8.9,8.6-.2,12.3-1.4,3.5-1.1,9.3-1.6,9.6-4.8.4-3.5-4.9-5.6-8-8-2-1.6-3.4-1.4-4.8.8-2.8,4.3-5.8,8.5-9.1,13.4h0ZM127.6,115.9c-.1,2.9-.2,4.7-.3,6.5,0,2-.2,4-.3,6-.6,7.4,0,8.1,7.2,9.2,2.4.4,3.1-.3,2.5-2.6-1.8-6.5-3.5-13.1-9-19.1h0ZM92.5,90.4c-8.2-2.1-15-2.8-22-1.4-1,.2-3,0-2.7,1.4.6,2.8,3.2,4.5,5,6.6,1.3,1.5,2.7.7,4.1,0,4.6-2.5,9.6-4.4,15.7-6.7h0ZM27.6,185.2c0-3,.1-4.8.2-6.6.1-2,.3-4,.5-5.9.6-6.6,0-7.3-6.4-8.5-3.3-.6-3.8.6-3,3.4,1.6,6,4.4,11.4,8.8,17.6h0ZM63.1,209.8c6.7,1.5,12.2,1.9,17.8,1.3,1.4-.2,3.7.2,4-1.2.5-2.6-2.1-4.2-3.3-6.3-1-1.7-2.3-1.3-3.8-.6-4.6,2.2-9.2,4.3-14.7,6.9h0Z"/>
          <path class="cls-1" d="M267.3,250.6c-5.9,8.7-11.8,17.4-17.8,26-20.2,28.9-58.5,35.5-88.1,16.2-29.9-19.5-39.3-58-17.2-90.6,12.2-17.9,24.4-35.8,36.6-53.7,3.6-5.3,4.6-5.4,10-1.8,7.8,5.4,15.7,10.7,23.5,16.1,4.6,3.2,4.8,4.7,1.6,9.4-11.4,16.4-22.8,32.8-34.1,49.3-2.2,3.1-4.2,6.5-5.6,10-4.3,11.1.4,22.3,11.4,28.1,9.4,4.9,20.9,1.6,27.9-8.4,12.2-17.5,24.1-35.2,36.1-52.8,4.4-6.5,5-6.6,11.4-2.3,7.8,5.3,15.6,10.8,23.5,16.1,3.4,2.2,3.8,4.5,1.5,7.8-7.1,10.1-14,20.3-20.9,30.5h0s0,0,0,0Z"/>
          <path class="cls-1" d="M359.1,260.2c19,13.1,28.4,30.4,31.8,51.4.5,2.9-.1,4.3-3.2,4.8-10.5,1.8-21,3.7-31.4,5.8-4.3.9-5.6-1-6.2-4.7-1.7-10.5-6.9-18.5-16.4-23.8-12.3-6.8-27.8-2.9-36.1,9.3-7.9,11.7-5.7,27.8,4.8,36.6,8.6,7.2,18.2,9.2,29,6.9,6.3-1.4,6.7-1.1,7.8,5.3,1.7,9.3,3.1,18.7,4.9,28.1.5,2.8-.2,4.1-3,5.1-25.5,8.4-55.9-.7-74.1-22.3-18.3-21.7-21.8-51.3-8.9-75.7,18.5-34.9,56.6-48.2,91.8-31.9,3.6,1.7,6.9,3.9,9.2,5.2h0Z"/>
          <path class="cls-3" d="M33,126.2c8.3,5.6,8.2,5.6,3.9,15-1.8,3.9-3.4,8-4.6,12.1-.8,2.6-2,3.1-4.3,2.2-.9-.4-1.9-.6-2.9-.8-6-1.6-8.7-5.6-7.9-12.1.7-6.2,2.7-12,4.9-17.7,1.5-4,3.3-4.5,6.5-1.8,1.4,1.2,3,2.1,4.5,3.1h0Z"/>
          <path class="cls-3" d="M38.8,117.8c-.3-.2-.5-.4-.8-.6-8.8-6.1-8.8-6.7-.7-13.6,4.4-3.8,9.4-6.9,14.5-9.6,2.6-1.4,4.4-1,6.4,1.4,6.9,8.9,7,8.8-1.1,16.8-2.5,2.5-5,4.9-6.9,7.8-2.2,3.2-4.1,3.2-6.8.9-1.4-1.2-3-2.1-4.5-3.1,0,0,0,0,0,0Z"/>
          <path class="cls-3" d="M116,183c9.8,6.6,9.8,6.7.4,14.3-4.5,3.7-9.5,6.7-14.9,9.1-3,1.3-5.5,1.3-7.1-2,0-.1-.2-.3-.3-.4-5.3-7.2-5.2-7.1,1.1-13,3.3-3,6.7-6.1,9.4-9.6,2.8-3.7,5.1-3.4,8.1-.7,1,.9,2.2,1.5,3.3,2.3h0Z"/>
          <path class="cls-3" d="M122.3,174.8c-8.2-5.6-8.1-5.6-3.8-14.6,1.8-3.7,3.3-7.6,4.6-11.6.8-2.5,2.1-3.2,4.5-2.4,11.8,4,11.7.3,10,14.4-.6,5.5-2.4,10.6-4.6,15.7-1.7,3.9-3.3,3.9-6.2,1.5-1.4-1.2-3-2.1-4.5-3.1h0Z"/>
          <path class="cls-3" d="M66,136.3c-1.2-.8-2.5-1.7-3.7-2.5-7.1-4.9-7.2-5.4-1-11.6,3.1-3.2,6-7.7,10.1-8.6,4.4-1,6.8,4.5,10.2,7,8.2,5.9,7.4,4.4,2,12.4q-7.1,10.6-17.6,3.4h0Z"/>
          <path class="cls-3" d="M89.3,164.7c.4.3.8.6,1.2.8,10.3,7.3,10.7,4.5,1.4,14.9-.2.2-.5.4-.7.7-5.6,5.3-11.3,5.3-16.9,0-4.7-4.4-5.2-9.2-1.5-14.5,4.1-6,9.2-6.9,15.2-2.8.4.3.8.6,1.2.8h0Z"/>
          <path class="cls-3" d="M60.5,145c6.7,4.6,7.8,10.2,3.2,16.9-3.4,4.9-7.5,5.9-12.5,3-.6-.3-1.1-.7-1.7-1-9.2-4.7-9.7-2.7-5.5-13.9,4.9-13.1,4.9-13,16.6-5.1h0Z"/>
          <path class="cls-3" d="M94.9,156.1c-10.1-6.9-10.1-7-3.2-17,5.5-7.9,3.7-8.4,12.7-2.9.4.3.9.5,1.3.8,6.2,3.4,8.1,8.5,5.5,15-3.2,8-8.3,9.6-15.5,4.7-.3-.2-.5-.4-.8-.6Z"/>
          <path class="cls-3" d="M99.9,109c-3.9,5.8-8.6,6.5-14,2.1-1.1-.9-2.1-2.1-3.2-3.1-1.4-1.3-1.1-2.1.5-3,5.9-3.2,12.1-5.3,18.8-5.7,2.8-.1,4.4.5,2.1,3.5-1.5,2-2.8,4.1-4.2,6.1h0Z"/>
          <path class="cls-3" d="M108.6,114.4c1-1.5,2-3.1,3.1-4.5.9-1.1,1.1-3.2,3.1-2.6,1.4.4,1.5,2.1,1.8,3.3,1.3,5.5,1.2,11.1.8,16.8-.2,2.4-1.1,3.2-3.5,2.2-3.2-1.3-6-3.4-8.9-5.3-1.6-1-1.6-2.3-.6-3.8,1.4-2,2.8-4.1,4.2-6.1h0s0,0,0,0Z"/>
          <path class="cls-3" d="M46.7,186.7c-.9,1.4-1.8,2.8-2.8,4.1-.9,1.1-1.2,3.3-3,2.7-.9-.3-1.4-2.1-1.8-3.3-1.6-5.5-1.5-11.1-1-16.8.2-2.3,1-3.5,3.4-1.9.1,0,.3.1.5.2,11.2,4.6,11.4,5.3,4.8,14.9h0Z"/>
          <path class="cls-3" d="M50,200.1c3.4-4.9,6.3-9.1,9.1-13.4,1.4-2.2,2.9-2.4,4.8-.8,3.1,2.5,8.3,4.6,8,8-.4,3.3-6.1,3.7-9.6,4.8-3.7,1.2-7.5,2.3-12.3,1.4h0Z"/>
          <path class="cls-3" d="M127.6,115.9c5.5,6.1,7.3,12.6,9,19.1.6,2.2,0,3-2.5,2.6-7.2-1.1-7.8-1.9-7.2-9.2.2-2,.2-4,.3-6,0-1.8.2-3.6.3-6.5h0Z"/>
          <path class="cls-3" d="M92.5,90.4c-6.2,2.2-11.1,4.1-15.7,6.7-1.3.7-2.8,1.5-4.1,0-1.8-2.1-4.3-3.9-5-6.6-.3-1.3,1.7-1.2,2.7-1.4,6.9-1.4,13.8-.7,22,1.4h0Z"/>
          <path class="cls-3" d="M27.6,185.2c-4.3-6.3-7.1-11.7-8.8-17.6-.8-2.8-.3-4,3-3.4,6.3,1.2,7,1.9,6.4,8.5-.2,2-.4,4-.5,5.9-.1,1.8-.1,3.5-.2,6.6h0Z"/>
          <path class="cls-3" d="M63.1,209.8c5.5-2.6,10.2-4.7,14.7-6.9,1.5-.7,2.9-1.1,3.8.6,1.2,2.1,3.8,3.7,3.3,6.3-.3,1.5-2.6,1-4,1.2-5.6.7-11.2.3-17.8-1.3h0Z"/>
        </g>
      </g>
    </g>
  </g>
</svg>