<?xml version="1.0" encoding="UTF-8"?>
<svg xmlns="http://www.w3.org/2000/svg" version="1.1" viewBox="0 0 500 500">
  <defs>
    <style>
      .cls-1 {
        fill: #ab1600;
      }
    </style>
  </defs>
  <!-- Generator: Adobe Illustrator 28.7.1, SVG Export Plug-In . SVG Version: 1.2.0 Build 142)  -->
  <g>
    <g id="_Слой_1" data-name="Слой_1">
      <g id="_Слой_1-2" data-name="_Слой_1">
        <g>
          <path class="cls-1" d="M368,245.9c.7-22.1,1.5-44.2,2.2-66.3.2-6,.5-6.3,6.5-6.2,7.1.1,14.2.2,21.3.4,4.5,0,5.1.7,5,5.2-.3,10.7-.6,21.3-1.1,32-.1,2.9.2,3.9,3.5,2.7,28.4-9.8,59.3,10.4,62.9,41,.8,7.2.2,14.4,0,21.6-.3,12.7-.9,25.4-1.2,38.2,0,3.6-1.5,5-5.2,4.8-7.8-.3-15.5-.3-23.3-.4-4.8,0-5.1-.4-4.9-5.1.5-15.9,1.1-31.9,1.6-47.8.1-3.5,0-6.9-1-10.3-2.8-8.2-10.1-12.6-18.7-11.3-8.2,1.2-14.6,8-14.9,16.5-.7,17-1.2,33.9-1.8,50.9-.2,6.2-.4,6.4-6.5,6.3-7.2-.1-14.5-.4-21.7-.3-3.5,0-4.7-1-4.6-4.7.9-22.4,1.6-44.7,2.3-67.1h-.3s0,0,0,0Z"/>
          <path class="cls-1" d="M32.4,214.8c.5-14.1,1-28.3,1.3-42.4,0-3.7,1.4-5,5.1-4.8,7.6.3,15.3.3,22.9.4,4.6,0,5.2.7,5.1,5.5-.3,9.9-.6,19.8-.9,29.7-.1,4.6-.1,4.6,4.3,3.2,35.1-10.8,65.2,12.7,70.8,41.2,7.2,36.4-25.3,70.5-62.1,65.2-28.8-4.2-47.6-26.2-47.6-56,0-14,.9-28,1.3-42,0,0-.1,0-.2,0h0ZM47.4,262.1c-1.4,0-2.9,0-4.3,0-3.2-.4-4.1.7-3.5,3.9.9,4.7,2.1,9.2,4.2,13.5,2.2,4.5,5.6,5.9,10.2,4.4.7-.2,1.5-.5,2.2-.7,1.9-.4,2.5-1.3,1.9-3.3-.9-3.2-1.5-6.5-2-9.8-1.1-7.9-1-7.9-8.8-8h0ZM47.7,254.2h0c1.4,0,2.9,0,4.3,0,2.7.3,4-.5,4.1-3.5,0-2.7.7-5.3,1.3-8,1.9-8.6,1.9-8.5-6.3-11.3-2.3-.8-3.6-.2-4.8,1.8-2.2,4-4.2,8-5.5,12.4-2.4,7.9-2.1,8.3,6.2,8.5.3,0,.5,0,.8,0ZM125.5,263.4c-1,0-2.1,0-3.1,0-3.1-.5-4.7.3-5,3.9-.3,3.4-1.2,6.8-2.1,10.2-1.7,6.4-1.8,6.4,4.7,8.8.1,0,.3,0,.4.1,2.4,1.4,4.1.4,5.5-1.7,2.5-3.8,4.5-7.9,5.9-12.2,3-8.9,2.9-9-6.2-9.1h0ZM126.2,255.5c1.4,0,2.9,0,4.3,0,2.9.3,3.9-.4,3.4-3.6-.7-4.2-1.7-8.3-3.5-12.1-4.8-9.8-3.2-7.5-12.6-5-1.9.5-2.4,1.5-1.9,3.4.8,3.1,1.4,6.2,1.8,9.4.9,7.7.9,7.7,8.6,7.8h0ZM73.2,254.6c9.8.2,9.9.2,10.1-9.6.2-7.4,1.3-6.8-6.5-7.1-3.3-.1-7.1-2.7-9.6-.2-2.3,2.3-2.3,6.4-3,9.8-1.5,6.6-1.2,6.9,5.5,7.1,1.2,0,2.3,0,3.5,0ZM100.3,263c-.4,0-.8,0-1.2,0-5.6,0-8.6,2.7-8.8,8.3-.2,5,2.1,7.8,7,8.7,5.9,1,9.5-1.4,11-7.2,0-.2.2-.5.2-.7,1.7-10.6,2.6-8.6-7.2-9-.4,0-.8,0-1.2,0h0ZM73.3,262.5c-11-.2-11-.2-8.8,10.3,2,9,1.5,7.5,9.4,6.6.5,0,1,0,1.5-.1,4.5-.2,6.8-2.7,6.9-7.2.2-6.3-2.9-9.5-9.1-9.6h0ZM100.4,255c.3,0,.5,0,.8,0,6.7.1,9.5-3.1,8.2-9.6-1-5.3-4.3-7.8-9.8-7.4-.4,0-.8,0-1.2,0-8.2.3-6.8-.1-7.1,7.3-.4,9.4-.3,9.4,9.2,9.6h0ZM84.1,222.6c0-1.9,0-3.8.2-5.7.2-2.9-1.1-2.7-2.8-1.4-4.3,3.1-7.5,7.1-10,11.6-.6,1.2-.5,1.9.9,2.1,1.1.2,2.2.5,3.4.6,5.4.5,8.1-1.9,8.3-7.3h0ZM92,222.4h0c0,1.9-.1,3.8-.2,5.7,0,1.4.4,2.2,1.9,2.2,2.7,0,5.4.1,8.1-.4,2-.4,2.3-1.3,1.4-2.9-2.1-3.8-4.4-7.4-7.5-10.4-.7-.7-1.5-1.7-2.6-1.4-1.5.5-.8,2-.9,3-.2,1.4-.1,2.8-.2,4.2h0ZM81.6,295.2c.3-9-.1-9.4-9.3-7.6-.1,0-.3,0-.4,0-2.2,0-2.3,1-1.4,2.6,2,3.9,4.3,7.5,7.7,10.4.7.6,1.9,1.6,2.6,1.4,1.4-.4.7-2,.8-3,.2-1.3.1-2.6.2-3.8h0ZM89.4,302.4c3.5-1.4,5.6-3.8,7.5-6.1,1.8-2.2,5.4-4.9,4.3-7.2-1.2-2.4-5.5-1.5-8.6-1.8-2-.2-2.8.6-2.8,2.6,0,4-.2,7.9-.4,12.5h0ZM105.1,215.3c1.1,1.9,1.8,3.1,2.5,4.3.8,1.3,1.6,2.6,2.3,4,2.6,5,3.4,5.2,8.5,2.9,1.7-.8,1.9-1.5.5-2.7-3.9-3.5-7.7-6.9-13.9-8.5h0ZM71.5,213.8c-6.2,2.1-11,4.6-15,8.4-.6.6-2,1.4-1.2,2.1,1.6,1.5,4,1.6,6,2.2,1.5.4,2.1-.7,2.7-1.7,2-3.6,4.4-6.9,7.5-11h0ZM68.5,302.4c-1.2-2-1.9-3.1-2.6-4.3-.8-1.3-1.5-2.7-2.2-4-2.4-4.5-3.1-4.7-7.7-2.7-2.4,1-2.2,2-.6,3.4,3.6,3.2,7.6,5.5,13.1,7.6h0ZM102,303.1c5-1.8,8.8-3.9,12.2-6.8.9-.7,2.5-1.4,2.1-2.5-.8-1.9-3.1-1.9-4.8-2.7-1.3-.7-2.1.1-2.8,1.3-2.1,3.4-4.2,6.7-6.8,10.7h0Z"/>
          <path class="cls-1" d="M252.9,242.7c-.3,8.1-.5,16.2-.8,24.3-1.2,27.2-23.5,47.7-50.9,47.8-27.7.2-49.9-20.7-49.1-51.1.5-16.7,1.1-33.4,1.6-50.1.2-4.9.8-5.5,5.8-5.4,7.4.1,14.7.2,22.1.4,4.3,0,5.1,1,5,5.4-.6,15.4-1.3,30.8-1.8,46.2-.1,2.9,0,6,.5,8.8,1.8,9,9.5,14.2,19.2,13.3,8.2-.8,14.4-7.8,14.8-17.3.7-16.4,1.1-32.9,1.7-49.3.2-6,.5-6.4,6.5-6.3,7.4.1,14.7.3,22.1.4,3.2,0,4.4,1.3,4.2,4.4-.4,9.5-.7,19-1,28.5h0s0,0,0,0Z"/>
          <path class="cls-1" d="M317.1,209.9c17.9.4,31.3,7.5,42.3,19.6,1.5,1.7,1.7,2.8-.1,4.4-6.1,5.6-12.2,11.3-18.2,17.1-2.4,2.4-4.1,1.8-6.1-.4-5.5-6-12.3-9-20.6-8.4-10.9.8-19.4,9.9-19.8,21.3-.3,10.9,7.9,20.3,18.4,21.5,8.6,1,15.7-1.8,21.8-7.9,3.6-3.6,3.9-3.5,7.3.1,5,5.3,9.9,10.7,14.9,16,1.5,1.6,1.6,2.7.2,4.5-13.2,16.2-36.9,23.3-57.9,17.1-21-6.2-35.7-23.8-37.4-45-2.4-30.3,17-55.1,46.8-59.5,3.1-.5,6.2-.4,8.2-.5h0Z"/>
        </g>
      </g>
    </g>
  </g>
</svg>